<svg xmlns="http://www.w3.org/2000/svg" version="1.1" xlink="http://www.w3.org/1999/xlink" xmlns:svgjs="http://svgjs.com/svgjs" width="100%" height="100%" viewBox="23 13 54 76">
<g fill="#FFFFFF">
<path d="M76.094 14.398L62.848 25.16c-3.71-1.379-7.98-2.168-12.527-2.168-4.676 0-9.055.836-12.836 2.285L24.094 14.398v21.918l.012-.008c-.004.086-.012.164-.012.25V74.75c0 3.68 3.012 6.688 6.687 6.688h1.7a.9.9 0 0 0-.254.61v4.808c0 .613.683 1.11 1.531 1.11.844 0 1.531-.497 1.531-1.11v-4.809a.9.9 0 0 0-.254-.61h1.781a.9.9 0 0 0-.253.61v4.809c0 .613.683 1.11 1.53 1.11.845 0 1.532-.497 1.532-1.11v-4.809a.9.9 0 0 0-.254-.61h1.781a.9.9 0 0 0-.254.61v4.809c0 .613.684 1.11 1.532 1.11.843 0 1.53-.497 1.53-1.11v-4.809a.9.9 0 0 0-.253-.61h12.78a.9.9 0 0 0-.253.61v4.809c0 .613.684 1.11 1.531 1.11.844 0 1.531-.497 1.531-1.11v-4.809a.9.9 0 0 0-.254-.61h1.782a.9.9 0 0 0-.254.61v4.809c0 .613.683 1.11 1.53 1.11.845 0 1.532-.497 1.532-1.11v-4.809a.9.9 0 0 0-.254-.61h1.781a.9.9 0 0 0-.254.61v4.809c0 .613.684 1.11 1.532 1.11.843 0 1.53-.497 1.53-1.11v-4.809a.9.9 0 0 0-.253-.61h1.7c3.679 0 6.687-3.01 6.687-6.687l-.016-38.19c0-.087-.012-.169-.012-.255l.012.012V14.398zM55.938 53.316zm-10.641-.102l9.648.09-4.57 5.266zm-7.602.938c-6.207 0-11.238-5.031-11.238-11.238s5.032-11.238 11.238-11.238c6.207 0 11.238 5.031 11.238 11.238-.004 6.207-5.035 11.238-11.238 11.238zm24.797 0c-6.207 0-11.238-5.031-11.238-11.238s5.032-11.238 11.238-11.238c6.207 0 11.238 5.031 11.238 11.238S68.7 54.152 62.492 54.152z"></path>
<path d="M45.367 42.914a7.674 7.674 0 1 1-15.348 0 7.674 7.674 0 1 1 15.348 0m24.801 0a7.674 7.674 0 1 1-15.348 0 7.674 7.674 0 1 1 15.348 0"></path>
</g>
</svg>