<svg xmlns="http://www.w3.org/2000/svg" version="1.1" xlink="http://www.w3.org/1999/xlink" xmlns:svgjs="http://svgjs.com/svgjs" width="100%" height="100%" viewBox="17.10101318359375 7.195000171661377 65.49298858642578 87.9530029296875">
<g fill="#9754cb">
<path d="M42.684 37.734c0 6.356-9.531 6.356-9.531 0 0-6.352 9.531-6.352 9.531 0m28.445 0c0 6.356-9.531 6.356-9.531 0 0-6.352 9.531-6.352 9.531 0"></path>
<path d="M68.848 15.277H33.493L17.122 7.199v74.855s-1.09 13.094 12.441 13.094h38.41s14.621-1.309 14.621-15.496V7.195zM35.77 47.992c-6.203 0-11.23-5.027-11.23-11.23s5.027-11.23 11.23-11.23S47 30.559 47 36.762s-5.027 11.23-11.23 11.23zm16.07 5.527l-1.988 4.262-1.989-4.262-1.988-4.257h7.961zm12.375-5.527c-6.203 0-11.23-5.027-11.23-11.23s5.027-11.23 11.23-11.23 11.23 5.027 11.23 11.23-5.027 11.23-11.23 11.23z" fill-rule="evenodd"></path>
</g>
</svg>